<?xml version="1.0" encoding="utf-8"?>
<!-- Generator: Adobe Illustrator 27.3.1, SVG Export Plug-In . SVG Version: 6.00 Build 0)  -->
<svg version="1.1" id="Layer_1" xmlns="http://www.w3.org/2000/svg" xmlns:xlink="http://www.w3.org/1999/xlink" x="0px" y="0px"
	 viewBox="0 0 603 497" style="enable-background:new 0 0 603 497;" xml:space="preserve">
<style type="text/css">
	.st0{fill:#F8EFE5;}
	.st1{fill:none;stroke:#1B1B1B;stroke-width:1.4059;stroke-linecap:round;stroke-linejoin:round;}
	.st2{fill:#1B1B1B;}
	.st3{fill:#606060;}
	.st4{fill:#1B1B1B;stroke:#1B1B1B;stroke-width:1.4059;stroke-linecap:round;stroke-linejoin:round;}
	.st5{fill:#EBC7B5;}
	
		.st6{opacity:0.83;fill:#1B1B1B;stroke:#1B1B1B;stroke-width:1.4059;stroke-linecap:round;stroke-linejoin:round;enable-background:new    ;}
	.st7{fill:none;stroke:#F8EFE5;stroke-width:1.4059;stroke-linecap:round;stroke-linejoin:round;}
	.st8{fill:#515254;stroke:#1B1B1B;stroke-width:1.4;stroke-linecap:round;stroke-linejoin:round;}
	.st9{fill:#999999;}
</style>
<path class="st0" d="M351.8,128.6l-10.1-5v-12.6V98.3h-4.6c0,0-5.6-8.3-5.6-8.9c0-0.6-4.5-10.4-5-13.1c-0.4-2.8-1.7-8.9-1.3-13.8
	s0.5-5.7,0.5-5.7l-1.8-8.2l1.9-14.1l-4.4-3c0,0-4.7-4.8-4.7-9.9s1.5-10.4,3.8-12.7c2.3-2.3,10.7-9.1,24.3-7.8
	c13.6,1.4,29.4,13,29.4,13l3.2-0.9c0,0,10.2,1.9,15.3,10.1c5.1,8.2,3.6,30,3.6,30l-1,4v2.3l-0.8,3.5l-2.6,0.3c0,0-0.5,7.6-4.1,10.7
	c-3.6,3.2-3.2,3.7-3.2,3.7v30.2h-13.8l-3.5,10l-15.4,17.8l-2.1-4.6L351.8,128.6z"/>
<path class="st0" d="M361.9,124.6L341.8,149v-25.5L361.9,124.6z"/>
<path class="st1" d="M341.8,127.2v-24.8"/>
<path class="st1" d="M384.5,108.1V70.8"/>
<path class="st1" d="M343.2,69.1c-1.8,1.5-5,1.7-6.4,1.6c-1.7-0.1-2.2-1.1-2.2-2.2c0.1-5.4,0.7-10.8,1.6-16.2"/>
<path class="st1" d="M334.6,46.5c-1.3-0.7-2.7-1-4.1-0.8c-1.4,0.1-2.8,0.6-3.9,1.5"/>
<path class="st1" d="M334.2,20.3c-3.6,3.7-6.4,8.2-8.2,13.1c-1.8,4.9-2.5,10.1-2.2,15.2c0,0,1.8,6.1,1.8,8.2c0,2.1-1.8,9.2,1.4,20.7
	c1.9,6.6,4.6,12.9,8,18.9c0.4,0.8,1.1,1.4,1.9,1.9c0.8,0.5,1.7,0.7,2.6,0.7h10.1c2.7,0,5.4-0.9,7.6-2.4c6.1-4.4,18.5-13.5,20.6-16.9
	c2.7-4.5,2.8-11.9,2.8-11.9"/>
<path class="st1" d="M380.8,62.5c2.5,0,4-1.3,5.9-3.5c1.7-2,3.1-5.2,2.4-10.9c-1.5-12.3-13.1-10.3-13.1-0.7"/>
<path class="st1" d="M376.5,44c0,0-9,5.5-18.1-12.4"/>
<path class="st1" d="M354.5,27.9c0,0-17.2-14.9-28.8-3.3"/>
<path class="st1" d="M342.5,46.3c4.2-1.3,10-0.9,12-0.2c2,0.7,6.7,5.6,6.7,5.6"/>
<path class="st1" d="M386.8,74.6c0,0,6.9-2.4,4.6-11.2"/>
<path class="st1" d="M396.2,67.9c-0.3-1.7-0.8-3.3-1.7-4.8"/>
<path class="st1" d="M375.9,13c16.2,1.8,20.4,16.1,20.4,22.3v17.9"/>
<path class="st1" d="M378.4,17.7c0,0-9.5-9-21.6-13.8c-12.2-4.8-29.2-4.2-36.7,5.5c-7.5,9.6-1.7,19.3,1.9,22.9"/>
<path class="st1" d="M338.2,78.5c5.8,0.8,9.6-0.6,11.1-0.6s0,5.3-4.9,6c-1.3,0.2-2.6,0-3.8-0.5"/>
<path class="st2" d="M348.2,55.5c-0.3-1.3,0.2-2.6,1.1-2.7c0.9-0.2,1.8,0.7,2.1,2.1c0.3,1.3-0.2,2.6-1.1,2.7
	C349.5,57.8,348.5,56.9,348.2,55.5z"/>
<path class="st2" d="M329,56.2c-0.3-1.3,0.2-2.6,1.1-2.7c0.9-0.2,1.8,0.7,2.1,2.1c0.3,1.3-0.2,2.6-1.1,2.7
	C330.3,58.5,329.3,57.6,329,56.2z"/>
<path class="st3" d="M264.2,167.7c7.1-5.6,42.6-33.6,47.6-38.6c4.6-4.7,10.7-7.6,17.2-8.3l6.5-1l-0.9-11.1h7.2V149l25.5-30.9l3.5-10
	H390l-1.8,9.1l1.4,0.5l14.7,5.8c0.4,0.1,0.7,0.2,1.1,0.4l0.5,0.2c7.4,2.8,12.6,10.3,18.8,26.8c8.1,21.6,21.7,66,25.5,80
	c1.5,5.7,1,10.3-1.5,13.6c-3.3,4.3-9.8,6.4-19.4,6.4c-5.5,0-13.8-1.6-22.6-3.2c-7.5-1.4-15.9-3-23.5-3.7l1.3,0.4l-3.9,11.6
	c0,0-23.4,1.7-32.1,8.1c-5.6,4.2-10.9,9-15.6,14.3l-40.9-0.2l-2.9-4.2c-1.6-2.4-2.8-5.1-3.3-7.9c-0.5-2.8-0.5-5.8,0.1-8.6l16.3-77.8
	l-1.8,1c-8.5,4.9-19.5,11.3-23.9,14c-2.5,1.6-8.5,5.3-15.1,5.3c-2.3,0-4.6-0.5-6.7-1.4c-2.1-0.9-5.6-3.9-5.6-3.9L264.2,167.7z
	 M413.1,222.5L401,194.9l-9.6,27.8L413.1,222.5z"/>
<path class="st0" d="M298.5,195.9l6-28.7L298.5,195.9z"/>
<path class="st1" d="M298.5,195.9l6-28.7"/>
<path class="st1" d="M335.5,119l-0.9-10.4h7.2V149l25.5-30.9l3.5-10h18.5"/>
<path class="st1" d="M271,198c2.1-0.9,4.1-2,6-3.2c1.6-1,12.1-7.2,14.9-8.8"/>
<path class="st0" d="M298.5,195.9l6-28.7L298.5,195.9z"/>
<path class="st1" d="M298.5,195.9l6-28.7"/>
<path class="st1" d="M450,230.8c3.6,13.6-4.5,20-20.9,20c-12.7,0-39.5-8.2-56.4-7.3c-1.5,0.1-2.9,0.4-4.3,1"/>
<path class="st1" d="M355.2,225.3c2.8-0.8,5.6-1.4,8.4-1.7c13.6-1.8,49.5-1.1,49.5-1.1s-11.5-27.4-23.2-51.2"/>
<path class="st2" d="M340.2,230.7c3.7-1,7.2-2.5,10.5-4.5l20.2-80.1c6.5-27.7,28.4-24.2,34.4-22.3c-0.4-0.1-0.7-0.3-1.1-0.4
	l-13.2-5.2c-1.1-0.4-2.2-0.6-3.4-0.6c-11,0.2-18.7,6.5-23.7,22.3C362,146.1,349.7,194.4,340.2,230.7z"/>
<path class="st2" d="M329.6,271.4c0,0,0.9-3.9,3.1-12.1c2.7,1.7,5.6,3,8.7,3.9l-1.8,7.1L329.6,271.4z"/>
<path class="st2" d="M318.6,132.1c2.2-8.3,4.7-12.9,17.3-13.6v1.1c-3.9,1.9-7.3,6-9,13.9l-26.6,138.7l-7.1-0.7
	C293.2,271.4,315.9,142.1,318.6,132.1z"/>
<path class="st1" d="M318.4,254.5l-3.7,16.9"/>
<path class="st1" d="M341.8,149l-20,90.5"/>
<path class="st1" d="M406.6,222.5l15.5,0.3"/>
<path class="st0" d="M78.5,251.6c0,11.1,11.1,20.1,24.9,20.1c13.7,0,24.9-9,24.9-20.1H78.5z"/>
<path class="st0" d="M103.4,271.7h7.2c1.1,0,2.2,0.2,3.3,0.6c1,0.4,2,1.1,2.8,1.8c0.8,0.8,1.4,1.7,1.8,2.8s0.6,2.1,0.6,3.3H87.7
	c0-2.3,0.9-4.4,2.5-6c1.6-1.6,3.8-2.5,6-2.5H103.4z"/>
<path class="st0" d="M103.4,271.7c0,0,1.7,0.5,3.8,1.1c4.3,1.2,10.5,2.7,9.4,1.4l-0.1-0.1c-0.4-0.4-0.7-0.8-1-1.3
	c-0.2-0.4-0.3-0.8-0.2-1.2c0-0.4,0.2-0.8,0.4-1.2c0.8-1.2,1.8-2.1,2.9-2.9c0.5-0.3,1-0.7,1.6-1.1l0.1-0.1l0.5-0.4
	c0.8-0.8,1.6-1.6,2.5-2.3l-11.8-2.1l-7,8.7L103.4,271.7z"/>
<path class="st0" d="M83.5,263.7c0.9,0.6,1.7,1.4,2.4,2.2l0.6,0.5h0.1c0.5,0.3,1,0.7,1.4,1c1.2,0.8,2.2,1.8,3,2.9
	c0.2,0.4,0.4,0.8,0.4,1.2c0,0.4,0,0.8-0.2,1.2c-0.2,0.5-0.5,0.9-0.9,1.3l-0.1,0.1c-1.1,1.4,5.1-0.2,9.4-1.4c2.2-0.6,3.8-1.1,3.8-1.1
	l-1-1.3l-7-8.7L83.5,263.7z"/>
<path class="st2" d="M78.5,249.2h49.8v2.4H78.5V249.2z"/>
<path class="st2" d="M91.2,272.8h24.3c-0.2-0.4-0.3-0.8-0.2-1.2c0-0.4,0.2-0.8,0.4-1.2H91.1c0.2,0.4,0.3,0.8,0.4,1.2
	C91.5,272,91.4,272.5,91.2,272.8L91.2,272.8z"/>
<path class="st4" d="M112.5,495.3h23.7l-3.7-1.5l-13.4,0.2l-6.3-0.2l0-8.1l6.2-7.4V287.5h-6.6v204.3H98.1l-2.9,3.6H112.5z"/>
<path class="st5" d="M58.6,277.5v10h94.7c0,0-0.9-2.9,0.7-10H58.6z"/>
<path class="st0" d="M189.4,485.9c-2.7-0.6-5.4-0.3-8,0.7l-0.5,0.1h-0.3c-1.1,0-2.1,0-3.2-0.1c-2.3-0.1-4.6-0.4-6.9-0.6
	c-6.7-0.5-13-0.9-19.7,0c-12.2,1.7-25.4-0.1-37.9-0.3v-3.9c0-1.9-0.3-4.1,3-6.4s7.2-3,18.2-5.4c11-2.4,20.1-10.6,20.1-10.6l0.7-6.9
	l2.3-1.5h12.9v8h11.8l7,0.4l3.4,10.9l-1,11.2L189.4,485.9z"/>
<path class="st0" d="M115.8,475.5c3.3-2.3,7.2-3,18.2-5.4c11-2.4,20.1-10.6,20.1-10.6l0.7-6.9l2.3-1.6h10.5l1.9,1l0.5,6.9h11.8
	l7,0.4l3.4,10.9l-1,11.2l-2.1,4.8c-1.8-0.4-3.7-0.5-5.6-0.2c-4.5,0.7-20,0.5-20.7,0.4h0.1c-2.6-0.4-5.2-0.2-7.7,0.6
	c-2.6-0.1-5.2-0.1-7.7-0.1c-6.1-0.1-12.1-0.4-18.2-0.7c-5.5-0.2-11,0-16.5-0.1v-0.6v-3.8C112.8,480,112.5,477.8,115.8,475.5z"/>
<path class="st1" d="M184.4,494h-67.5c-1.2,0-2.3-0.5-3.1-1.3c-0.8-0.8-1.3-2-1.3-3.1v-3.3h76.4v3.3c0,0.6-0.1,1.2-0.3,1.7
	c-0.2,0.5-0.5,1-1,1.4c-0.4,0.4-0.9,0.7-1.4,1C185.6,493.9,185,494,184.4,494z"/>
<path class="st1" d="M188.8,486.3c4.7-3.2,4.9-27.1-1.3-27.3H170"/>
<path class="st1" d="M170,461.7v-8.1c0-0.3-0.1-0.7-0.2-1c-0.1-0.3-0.3-0.6-0.6-0.8c-0.2-0.2-0.5-0.4-0.8-0.6
	c-0.3-0.1-0.7-0.2-1-0.2h-10.3c-0.7,0-1.3,0.3-1.8,0.7c-0.5,0.5-0.7,1.1-0.7,1.8v5.5l-6.9,4.4c-5.5,3.5-11.4,6.2-17.7,8l-13.8,3.9
	c-1.1,0.4-2.1,1.1-2.8,2.1c-0.7,1-1,2.1-1,3.3v5.7"/>
<path class="st1" d="M152.5,460.3l9.3,10.5"/>
<path class="st1" d="M146.3,464.4l6.8,8.3"/>
<path class="st1" d="M141.2,467.8l4.8,6.4"/>
<path class="st2" d="M169.5,453.6l0.5,5.5l10.2-1c0,0,1.4-4.4-1.5-4.4H169.5z"/>
<path class="st0" d="M338.1,306.7c12.1-26.8,22.1-34.9,42.8-34.9h27.3c31.9,0,52.4-8,63.9-25.5c-12.6,32.7-34.8,70-49.2,94.1
	l-0.5,0.8c-3.6,6-8.7,11-14.8,14.4c-6.1,3.5-12.9,5.3-19.9,5.3l-90-0.5C315.5,353.5,326.7,331.9,338.1,306.7z"/>
<path class="st0" d="M307.8,324.5l-51.6,0.1l-4.6,4.1c0,0-9.7,16.8-8.8,16.8h33.1c1.1,0,10.5-1.8,14.1-3.8c3.6-2,13-10.4,13-10.4
	L307.8,324.5z"/>
<path class="st1" d="M443.8,266c-9.7,3.2-21.5,4.8-35.6,4.8h-27.3c-20,0-30.9,7.3-43.6,35.5c-6.8,15-13.8,29.7-22.7,40.2"/>
<path class="st1" d="M420,135.9c57.3,8.7,67.4,55.7,60,88.6"/>
<path class="st1" d="M439.1,156.7c4.2,2.1,8.2,4.7,11.7,7.8c12.9,11.5,17.3,29,15.6,45.8c-2.9,29.7-17.3,45.5-60.9,45.5h-27.3
	c-20,0-42.8,10-55.5,38.2c-13.7,30.5-21.6,51.6-51.8,51.6h-27.3"/>
<path class="st1" d="M272.1,223.3c7.6-4.6,14.7-10.1,21.1-16.3"/>
<path class="st1" d="M164.7,268.5c-7.8,7.6-13.6,18.3-10.9,32.8c3.2,16.8,10.5,35.4,25.5,47.2c14,11,11.2,9,11.2,9"/>
<path class="st1" d="M267.2,361.7h120.5c7.1,0,14.2-1.9,20.4-5.4c6.2-3.5,11.4-8.6,15.1-14.7c17.4-29.2,47.1-78.8,56.4-115.5"/>
<path class="st4" d="M275.9,361.7c8.6,0,24.9,0,24.9,22s-3.2,111.6-3.2,111.6h7.3c0,0,3.2-93.4,3.2-111.5c0-22,22-22,22-22
	L275.9,361.7z"/>
<path class="st4" d="M270.4,361.7c0,0,9.8,0.1,7.2,13l-29.9,120.6h5.9l30.6-119.5c1-4.5,3.4-8.5,7-11.5l-5.7-2.6H270.4z"/>
<path class="st6" d="M373.4,361.7c0,0,2.8,0.1,7.6,0.1c11.9-0.1,18.2,18.5,18.2,18.5l36.7,115h7.6c0,0-21.7-68.8-30-94.8
	c-8.3-26-9.2-26.9,13.6-65.2c0,0-9.5,19-25.7,23.9C389.2,364.7,373.4,361.7,373.4,361.7z"/>
<path class="st1" d="M285.4,361.7H236"/>
<path class="st4" d="M184.2,385.9c1.1-12.9-2.2-24.9-16.2-48.4c4.5,5,9.4,9.6,14.8,13.7c7.7,5.6,7.7,6.2,7.7,6.2l4.8,17.8l-8.6,10.7
	H184.2z"/>
<path class="st0" d="M364.7,247.6c1.8-0.9,3.8-3.6,3.8-3.6s1.6-6.8-1.9-11.3c-3.5-4.6-11.4-7.4-11.4-7.4l-20.3,7.7l-11.9,5.2
	l-9.7,9.4l-7.7,11.7l0.8,2.7l1.5,0.4c0,0,2.6-0.3,2.6-0.9c0-0.6,9.9-9.1,9.9-9.1l8.1-7l-2,8.1c-0.2,0.6-0.1,1.3,0,1.9
	c0.2,0.6,0.5,1.2,0.9,1.7c1.5,1.5,7.5,4.1,7.5,4.1l8.7,2.8h4.7c0,0,2.6-4.2,2.6-5.8c0-1.6-1.6-4.8-1.6-4.8
	C354.6,252.1,359.8,250.1,364.7,247.6L364.7,247.6z"/>
<path class="st1" d="M329.6,242.1c0,0-2.4,8-3.1,12.1c-0.1,0.8,0,1.6,0.4,2.3c0.4,0.7,1.1,1.2,1.8,1.5l3.9,1.3"/>
<path class="st1" d="M335,244.3c0,0-2.4,8-3.1,12.1c-0.2,0.8,0,1.6,0.4,2.3c0.4,0.7,1.1,1.2,1.8,1.5l3.9,1.3"/>
<path class="st1" d="M340.3,247.5c-1.2,3.7-2.2,7.4-3.1,11.2c-0.1,0.8,0,1.6,0.4,2.3c0.4,0.7,1.1,1.2,1.8,1.5l5.2,1.7
	c0.8,0.3,1.7,0.2,2.5-0.2c0.8-0.4,1.4-1,1.8-1.8l1.7-3.5c0.3-0.5,0.3-1.2,0.2-1.8c-0.1-0.6-0.5-1.1-0.9-1.5l-0.5-0.4
	c-0.5-0.4-1.1-0.6-1.7-0.5c-0.6,0.1-1.2,0.3-1.6,0.8l-1.8,2"/>
<path class="st1" d="M368.4,244.5c-2.2,1-3.2,2.1-5.4,3.9c-2.3,1.9-5,3.3-7.9,4.1c-2.9,0.8-5.9,1-8.8,0.6l-2.7,5.7"/>
<path class="st1" d="M328.4,246.5l-8.1,5.4c-0.2,0.2-0.4,0.4-0.6,0.6l-7.9,8.4c-0.6,0.7-1.4,1.2-2.3,1.4c-0.9,0.2-1.8,0.2-2.7-0.1
	l-0.3-0.1c-0.3-0.1-0.5-0.3-0.7-0.5c-0.2-0.2-0.3-0.4-0.4-0.7c-0.1-0.3-0.1-0.5-0.1-0.8c0-0.3,0.1-0.5,0.3-0.8
	c2.1-3.1,5.3-8.1,9.8-12.9c5.5-5.7,7.9-7.9,11.8-9.6c7.2-3,17.3-8.5,27.9-11.6"/>
<path class="st1" d="M368.4,244.5c0,0,3.2-16.4-13.2-19.2"/>
<path class="st2" d="M206.1,413.3c4.9,13.5,8.2,22.4,8.2,22.4c14,1.9,23.6-2,29.1-11.7L232,373.2"/>
<path class="st1" d="M206.1,413.3c4.9,13.5,8.2,22.4,8.2,22.4c14,1.9,23.6-2,29.1-11.7L232,373.2"/>
<path class="st2" d="M201.9,382.5l31.5-80.8l19.6-13.6l-4.3-6.1l-42.4-5.6c-16.2-2.2-36.4,9.6-23.3,56.2
	c4.2,15.1,6.5,24.3,12.2,41.1"/>
<path class="st1" d="M201.9,382.5l31.5-80.8l19.6-13.6l-4.3-6.1l-42.4-5.6c-16.2-2.2-36.4,9.6-23.3,56.2
	c4.2,15.1,6.5,24.3,12.2,41.1"/>
<path class="st4" d="M332.7,278.3h-93c-4.7,0.2-9.3,1.8-13.1,4.6c-3.8,2.8-6.7,6.7-8.2,11.2L161.8,449c8,6.3,17,10,28.2,10l62-131
	c0.5-1.1,1.3-2,2.3-2.6c1-0.6,2.1-1,3.3-1h50.3c7.9-14.9,10.4-20.6,14.9-30.5C325.2,288.2,328.6,283,332.7,278.3z"/>
<path class="st7" d="M210.9,417.3l25.2-53.4"/>
<path class="st7" d="M240.9,278.3h-1.2c-4.7,0.2-9.3,1.8-13.1,4.6c-3.8,2.8-6.7,6.7-8.2,11.2l-38.7,100.9"/>
<path class="st3" d="M389.5,54c0-1,0-0.5,0-1.5c0-1,0.5-3,0-4l15.4,15c0.2,0.2,0.3,0.4,0.3,0.7c0,0.3-0.1,0.5-0.3,0.7l-1.4,1.4
	c-0.2,0.2-0.4,0.3-0.7,0.3c-0.3,0-0.5-0.1-0.7-0.3L389.5,54z"/>
<path class="st3" d="M369,29.2l10.5,10.3c-0.6,0.2-1,0.5-1.5,1s-0.8,1.4-1,2l-10.7-10.4l-3.2-5.9L369,29.2z"/>
<path class="st2" d="M402.2,66.3c0.2,0.2,0.4,0.3,0.7,0.3s0.5-0.1,0.7-0.3l1.4-1.4c0.1-0.1,0.2-0.2,0.2-0.3c0-0.1,0.1-0.2,0.1-0.4
	s0-0.3-0.1-0.4c-0.1-0.1-0.1-0.2-0.2-0.3l-6.2-5.9c0.1,0.2,0.1,0.4,0.1,0.6c0,0.2-0.1,0.4-0.3,0.6l-1.4,1.4
	c-0.2,0.2-0.4,0.3-0.7,0.3c-0.3,0-0.5-0.1-0.7-0.3L402.2,66.3z"/>
<path class="st2" d="M363,26.2l3.2,5.9l2.7-2.9L363,26.2z"/>
<path class="st8" d="M332.7,278.3H173c-1.2,0-2.3-0.3-3.3-1c-1-0.6-1.8-1.5-2.2-2.6l-38.6-85.3c-0.3-0.6-0.4-1.3-0.4-2
	c0-0.7,0.3-1.3,0.6-1.9c0.4-0.6,0.9-1,1.4-1.4s1.2-0.5,1.9-0.5l116.5-1.6c1.3,0,2.7,0.4,3.8,1.1c1.1,0.7,2,1.8,2.6,3l38.2,85.3h44.9
	L332.7,278.3z"/>
<path class="st0" d="M195.2,488.1v-7.2l2.3-4l6.5-4.3l8.9-22.2l-1.4-7.8l1.9-3.2l16.5,0.9l3.1,1.7l1,2.6l2.4-2.4l6.6-7.8l-0.6-4
	c0,0,2.4,0,4.1,3.1c1.7,3.1,5.4,8.4,5.4,15.1c0,6.6-18.7,31-18.7,31l-6.5,8.5L195.2,488.1z"/>
<path class="st1" d="M235.3,448.8l-1.7-5.5c-0.3-0.8-0.7-1.5-1.4-2.1c-0.7-0.5-1.5-0.8-2.3-0.9l-14.1-0.9c-0.7,0-1.4,0.1-2,0.4
	c-0.6,0.3-1.2,0.7-1.6,1.2c-0.4,0.5-0.7,1.1-0.8,1.7c-0.1,0.6-0.1,1.3,0,1.9l1.5,5.8l-7.5,19.9c-0.6,1.6-1.7,2.9-3.2,3.8l-4.7,2.8
	c-0.7,0.4-1.3,1-1.7,1.7c-0.4,0.7-0.6,1.5-0.6,2.3v7.2h31.6c0,0,20.5-25.6,25-37c0.5-3.2,0.2-6.5-1.1-9.4c-1.6-3.5-3.3-6.8-5.2-10.1
	c0,0-0.5-1-2.9-1c0,0,3,6.4-8,13.1"/>
<path class="st1" d="M195.2,488.1v5.3c0,0.2,0,0.5,0.1,0.7c0.1,0.2,0.2,0.4,0.4,0.6c0.2,0.2,0.4,0.3,0.6,0.4
	c0.2,0.1,0.5,0.1,0.7,0.1l32.1-0.1c0.6,0,1.1-0.1,1.6-0.4c0.5-0.3,0.9-0.6,1.2-1.1l23.5-34.5c0.5-0.7,0.9-1.6,1-2.5
	c0.1-0.9,0.1-1.8-0.2-2.7c-0.5-1.7-2.4-3.9-3.8-6"/>
<path class="st1" d="M212.3,453.3l16.1,0.5"/>
<path class="st1" d="M209.3,460.6l15.9,0.5"/>
<path class="st1" d="M206.1,468.1l14.4,0.3"/>
<path class="st1" d="M196.6,478.3h22.1"/>
<path class="st1" d="M241.2,427.3l1.8,5.9c0.2,0.8,0,1.7-0.4,2.4c-1.9,3.4-4.7,6.2-8.1,8.1"/>
<path class="st1" d="M217.5,436.1l1.1,3.2"/>
<path class="st9" d="M201.2,219c0.4-1.6,1.3-2.2,1.7-2.4c0.1-0.1,0.3,0,0.3,0.2c0.2,0.6,0.4,1.8,0,3.2c-0.5,1.6-1.3,1.9-1.7,2
	c-0.1,0-0.2-0.1-0.3-0.2C201.1,221.4,200.9,220.3,201.2,219z M201.8,223.3c0.5-0.1,1.2-1.4,2.5-1.7c1.7-0.5,2.9,0.6,3.4,1.1
	c0.1,0.1,0.1,0.3,0.1,0.4c-0.3,0.5-1.1,2-0.5,4.2c0.7,2.6,2.4,3.4,3,3.6c0.1,0,0.2,0.2,0.2,0.3c0,1.2-0.2,5.7-1.9,6.2
	c-0.9,0.2-1.8-0.4-2.8-0.1c-1,0.3-1.7,1.4-2.3,1.5c-1.8,0.5-5.5-4.2-6.6-8.4c-1.1-4.2-0.2-6.8,2-7.3
	C200.1,222.8,201.2,223.5,201.8,223.3L201.8,223.3z"/>
</svg>
